G04 DipTrace 4.1.1.0*
G04 1 - Top.gbr*
%MOIN*%
G04 #@! TF.FileFunction,Copper,L1,Top*
G04 #@! TF.Part,Single*
G04 #@! TA.AperFunction,Conductor*
%ADD15C,0.016*%
%ADD16C,0.011*%
%ADD18R,0.043307X0.03937*%
G04 #@! TA.AperFunction,ComponentPad*
%ADD19R,0.059055X0.059055*%
%ADD20C,0.059055*%
%ADD21R,0.084646X0.037402*%
%ADD22R,0.084646X0.127953*%
G04 #@! TA.AperFunction,ViaPad*
%ADD23C,0.04*%
%FSLAX26Y26*%
G04*
G70*
G90*
G75*
G01*
G04 Top*
%LPD*%
X1020000Y1008928D2*
D15*
X1154497D1*
X1160551Y1002874D1*
Y1000265D1*
X1020000Y1008928D2*
X965178D1*
X919016Y962765D1*
Y844016D1*
X1019016Y744016D1*
Y594016D1*
X919016Y1568440D2*
Y1109912D1*
X1020000Y1008928D1*
Y1099479D2*
D16*
X1159764D1*
X1160551Y1100266D1*
X1020000Y1099479D2*
D15*
Y1343416D1*
X673932D2*
Y1968819D1*
X1020000Y918377D2*
D16*
Y876251D1*
X1019016Y875266D1*
X1227480Y1000265D2*
X1269016D1*
X1227480Y1100266D2*
X1266965D1*
X1268215Y1099016D1*
X819016Y594016D2*
D15*
X605516Y807516D1*
Y1385715D1*
X1211816D2*
Y1725782D1*
X1173932Y1763667D1*
Y1968819D1*
X1119016Y1568440D2*
X1117816D1*
Y1385715D1*
X1273923Y1968819D2*
X1272008D1*
Y1442115D1*
X718316D2*
Y844715D1*
X919016Y644016D1*
Y594016D1*
X1019016Y1568440D2*
Y1437416D1*
D23*
X1020000Y1343416D3*
X673932D3*
X605516Y1385715D3*
X1211816D3*
X1117816D3*
X1272008Y1442115D3*
X718316D3*
X1019016Y1437416D3*
Y875266D3*
X1269016Y1000265D3*
X1268215Y1099016D3*
D18*
X1227480Y1000265D3*
X1160551D3*
X1227480Y1100266D3*
X1160551D3*
D19*
X1119016Y594016D3*
D20*
X1019016D3*
X919016D3*
X819016D3*
D19*
Y1568440D3*
D20*
X919016D3*
X1019016D3*
X1119016D3*
D19*
X473932Y1968819D3*
D20*
X573932D3*
X673932D3*
X773932D3*
X873932D3*
X973932D3*
X1073932D3*
X1173932D3*
X1273923D3*
X1373923D3*
X1473923D3*
X1573923D3*
D21*
X1020000Y918377D3*
Y1008928D3*
Y1099479D3*
D22*
X791654Y1008928D3*
M02*
