M48
INCH
T01C0.0191
T02C0.0354
T03C0.0866
T04C0.1378
%
T01
X+010190Y+008753
X+012690Y+010003
X+012682Y+010990
X+012118Y+013857
X+012720Y+014421
X+011178Y+013857
X+010200Y+013434
X+010190Y+014374
X+007183Y+014421
X+006739Y+013434
X+006055Y+013857
T02
X+011190Y+005940
X+010190Y+005940
X+009190Y+005940
X+008190Y+005940
X+008190Y+015684
X+009190Y+015684
X+010190Y+015684
X+011190Y+015684
X+010739Y+019688
X+009739Y+019688
X+008739Y+019688
X+007739Y+019688
X+006739Y+019688
X+005739Y+019688
X+004739Y+019688
X+011739Y+019688
X+012739Y+019688
X+013739Y+019688
X+014739Y+019688
X+015739Y+019688
T03
X+005104Y+006137
X+014277Y+006137
X+014277Y+015487
X+005104Y+015487
T04
X+015161Y+008271
T00
M30
