G04 DipTrace 4.1.1.0*
G04 TopSilk.gbr*
%MOIN*%
G04 #@! TF.FileFunction,Legend,Top*
G04 #@! TF.Part,Single*
%ADD10C,0.009843*%
%ADD41C,0.004632*%
%FSLAX26Y26*%
G04*
G70*
G90*
G75*
G01*
G04 TopSilk*
%LPD*%
X769016Y644016D2*
D10*
Y544016D1*
X1169016Y644016D2*
X769016D1*
X1169016Y544016D2*
X769016D1*
X1169016Y644016D2*
Y544016D1*
Y1518440D2*
Y1618440D1*
X769016Y1518440D2*
X1169016D1*
X769016Y1618440D2*
X1169016D1*
X769016Y1518440D2*
Y1618440D1*
X394016Y2047559D2*
Y394016D1*
X1653858D1*
Y2047559D1*
X394016D1*
G36*
X1050207Y887749D2*
X1051213Y887683D1*
X1052201Y887487D1*
X1053155Y887163D1*
X1054058Y886717D1*
X1054896Y886158D1*
X1055654Y885493D1*
X1056318Y884736D1*
X1056878Y883898D1*
X1057323Y882995D1*
X1057647Y882041D1*
X1057844Y881053D1*
X1057909Y880047D1*
X1057844Y879042D1*
X1057647Y878054D1*
X1057323Y877100D1*
X1056878Y876196D1*
X1056318Y875358D1*
X1055654Y874601D1*
X1054896Y873937D1*
X1054058Y873377D1*
X1053155Y872931D1*
X1052201Y872608D1*
X1051213Y872411D1*
X1050207Y872345D1*
X1050181D1*
X1049176Y872411D1*
X1048188Y872608D1*
X1047234Y872931D1*
X1046330Y873377D1*
X1045492Y873937D1*
X1044735Y874601D1*
X1044071Y875358D1*
X1043511Y876196D1*
X1043065Y877100D1*
X1042741Y878054D1*
X1042545Y879042D1*
X1042479Y880047D1*
X1042545Y881053D1*
X1042741Y882041D1*
X1043065Y882995D1*
X1043511Y883898D1*
X1044071Y884736D1*
X1044735Y885493D1*
X1045492Y886158D1*
X1046330Y886717D1*
X1047234Y887163D1*
X1048188Y887487D1*
X1049176Y887683D1*
X1050181Y887749D1*
X1050207D1*
G37*
X960945Y879008D2*
D10*
Y1138839D1*
X850709Y879008D2*
Y1138839D1*
X960945D2*
X850709D1*
X960945Y879008D2*
X850709D1*
G36*
X1104517Y786845D2*
X1104301Y786049D1*
X1103861Y785533D1*
X1103204Y784220D1*
X1102548Y782252D1*
X1101892Y778315D1*
Y776346D1*
X1102548Y773065D1*
X1103204Y771097D1*
X1103861Y769785D1*
X1105173Y767816D1*
X1107798Y765191D1*
X1109766Y763879D1*
X1112391Y762567D1*
X1116328Y761254D1*
X1119609Y760598D1*
X1127483D1*
X1131420Y761254D1*
X1135357Y762567D1*
X1137981Y763879D1*
X1140606Y765848D1*
X1142574Y768472D1*
X1143231Y769785D1*
X1143887Y771753D1*
Y778971D1*
X1143231Y780940D1*
X1141918Y783564D1*
X1139294Y786189D1*
Y786845D1*
X1142574Y787501D1*
Y793407D1*
X1087456D1*
Y787501D1*
X1104517Y786845D1*
X1109766D1*
X1117859Y787501D1*
X1125952D1*
X1134044Y786845D1*
X1135357Y785533D1*
Y784877D1*
X1136669Y782908D1*
X1137325Y780940D1*
X1137981Y780283D1*
Y773722D1*
X1137325Y773065D1*
X1136669Y771753D1*
X1136453Y770957D1*
X1136013Y770441D1*
X1134700Y769785D1*
X1134044Y769128D1*
X1130107Y767816D1*
X1125514Y767160D1*
X1120921D1*
X1116328Y767816D1*
X1114359Y768472D1*
X1111735Y769785D1*
X1108454Y773065D1*
Y773722D1*
X1107798Y775690D1*
X1107141Y776346D1*
Y780283D1*
X1107798Y780940D1*
X1108454Y784220D1*
X1109766Y786845D1*
X1104517D1*
G37*
G36*
X1113703Y753380D2*
X1110422Y752724D1*
X1108454Y752068D1*
X1106485Y750756D1*
X1103861Y748131D1*
X1102548Y745506D1*
X1101892Y742226D1*
Y740257D1*
X1102548Y736976D1*
X1104517Y733039D1*
X1105829Y731071D1*
X1107141Y729758D1*
X1103861Y729102D1*
X1103204Y728446D1*
Y723197D1*
X1103861Y722541D1*
X1142574D1*
Y729102D1*
X1112391Y729758D1*
X1111078Y731071D1*
Y731727D1*
X1109766Y733695D1*
X1109110Y735008D1*
X1108454Y737632D1*
X1107798Y738289D1*
Y741569D1*
X1108454Y742226D1*
Y743538D1*
X1110422Y745506D1*
X1111735Y746163D1*
X1115672Y746819D1*
X1142574Y747475D1*
Y753380D1*
X1113703D1*
G37*
G36*
X1094018Y714010D2*
X1092706Y712698D1*
X1092050Y710730D1*
X1090737Y708105D1*
X1090081Y706136D1*
X1089425Y703512D1*
X1088769Y698262D1*
Y694981D1*
X1089425Y690388D1*
X1090737Y686451D1*
X1092706Y682514D1*
X1094018Y680546D1*
X1096643Y677921D1*
X1099267Y675953D1*
X1103204Y673984D1*
X1107141Y672672D1*
X1109766Y672016D1*
X1123546D1*
X1128795Y673328D1*
X1134044Y675953D1*
X1136013Y677265D1*
X1139294Y680546D1*
X1140606Y682514D1*
X1142574Y686451D1*
X1143231Y688420D1*
X1143887Y691044D1*
Y701543D1*
X1143231Y704824D1*
X1141918Y708761D1*
X1141262Y710073D1*
X1140606Y712042D1*
X1139950Y713354D1*
X1139294Y714010D1*
X1116328D1*
Y695638D1*
X1116984Y694981D1*
X1122233D1*
Y706793D1*
X1127264Y707449D1*
X1132294D1*
X1137325Y706793D1*
Y706136D1*
X1137981Y703512D1*
X1138637Y702856D1*
Y691701D1*
X1137981Y691044D1*
X1137325Y689076D1*
X1136013Y687107D1*
Y686451D1*
X1132732Y683170D1*
X1131420Y682514D1*
X1130763Y681858D1*
X1128139Y680546D1*
X1126170Y679890D1*
X1122889Y679233D1*
X1118515Y678577D1*
X1114140D1*
X1109766Y679233D1*
X1107141Y679890D1*
X1105173Y680546D1*
X1101236Y682514D1*
X1099924Y683827D1*
X1098611Y684483D1*
X1097833Y685220D1*
X1097955Y685795D1*
X1095987Y688420D1*
X1095330Y690388D1*
X1094674Y693013D1*
X1094018Y693669D1*
Y698262D1*
X1094674Y698919D1*
X1095330Y702199D1*
X1095987Y704824D1*
X1097955Y708761D1*
X1099924Y711386D1*
X1101236Y713354D1*
Y714010D1*
X1094018D1*
G37*
G36*
X989687Y814404D2*
Y808499D1*
X990343Y807842D1*
X1033651Y793407D1*
X1032338Y792751D1*
X1002811Y782908D1*
X1000186Y782252D1*
X990343Y778971D1*
X989687Y778315D1*
Y771753D1*
X991000D1*
X998874Y774378D1*
X1021840Y782252D1*
X1040868Y788814D1*
X1042181Y789470D1*
Y796688D1*
X1039556Y798000D1*
X993624Y813748D1*
X991656Y814404D1*
X989687D1*
G37*
G36*
X1023152Y766504D2*
X1021183Y765848D1*
X1019871Y765191D1*
X1015934Y761254D1*
X1014622Y758630D1*
Y756661D1*
X1013822Y755976D1*
X1013063Y756061D1*
X1012653Y756661D1*
Y757974D1*
X1011341Y760598D1*
X1008060Y763879D1*
X1005435Y765191D1*
X1002811Y765848D1*
X999530D1*
X996905Y765191D1*
X994280Y763879D1*
X991000Y760598D1*
X989687Y757974D1*
X989031Y756005D1*
X988375Y751412D1*
Y748787D1*
X989031Y744194D1*
X989687Y741569D1*
X991000Y737632D1*
X992312Y736320D1*
X998217D1*
Y736976D1*
X995593Y742226D1*
X994937Y744194D1*
X994280Y746819D1*
X993624Y747475D1*
Y751412D1*
X994280Y752068D1*
X994937Y754693D1*
Y755349D1*
X997561Y757974D1*
X999530Y758630D1*
X1001061Y759286D1*
X1002592D1*
X1004123Y758630D1*
X1007404Y757317D1*
X1008716Y756661D1*
X1009245Y755814D1*
X1009372Y755349D1*
X1010685Y752724D1*
X1011341Y746163D1*
X1016590D1*
X1017246Y752068D1*
X1017903Y754693D1*
X1018559Y756005D1*
Y756661D1*
X1019871Y757974D1*
X1022496Y759286D1*
X1025558Y759942D1*
X1028620D1*
X1031682Y759286D1*
X1034307Y757974D1*
X1036931Y755349D1*
Y754693D1*
X1037588Y753380D1*
X1038244Y752724D1*
Y744194D1*
X1037588Y743538D1*
X1036931Y741569D1*
X1036275Y740257D1*
X1035619Y738289D1*
X1034307Y736320D1*
X1033651Y735008D1*
X1040212D1*
X1040868Y735664D1*
X1041525Y736976D1*
X1042837Y740913D1*
X1043493Y744194D1*
Y754037D1*
X1042181Y757974D1*
X1040868Y759942D1*
X1036931Y763879D1*
X1034963Y765191D1*
X1031026Y766504D1*
X1023152D1*
G37*
G36*
X1032994Y723853D2*
Y716635D1*
X1033651Y715979D1*
X1042181D1*
Y723853D1*
X1032994D1*
G37*
G36*
X1023152Y704168D2*
X1021183Y703512D1*
X1019871Y702856D1*
X1015934Y698919D1*
X1014622Y696294D1*
Y694325D1*
X1013822Y693641D1*
X1013063Y693725D1*
X1012653Y694325D1*
Y695638D1*
X1011341Y698262D1*
X1008060Y701543D1*
X1005435Y702856D1*
X1002811Y703512D1*
X999530D1*
X996905Y702856D1*
X994280Y701543D1*
X991000Y698262D1*
X989687Y695638D1*
X989031Y693669D1*
X988375Y689076D1*
Y686451D1*
X989031Y681858D1*
X989687Y679233D1*
X991000Y675296D1*
X992312Y673984D1*
X998217D1*
Y674640D1*
X995593Y679890D1*
X994937Y681858D1*
X994280Y684483D1*
X993624Y685139D1*
Y689076D1*
X994280Y689732D1*
X994937Y692357D1*
Y693013D1*
X997561Y695638D1*
X999530Y696294D1*
X1001061Y696950D1*
X1002592D1*
X1004123Y696294D1*
X1007404Y694981D1*
X1008716Y694325D1*
X1009245Y693478D1*
X1009372Y693013D1*
X1010685Y690388D1*
X1011341Y683827D1*
X1016590D1*
X1017246Y689732D1*
X1017903Y692357D1*
X1018559Y693669D1*
Y694325D1*
X1019871Y695638D1*
X1022496Y696950D1*
X1025558Y697606D1*
X1028620D1*
X1031682Y696950D1*
X1034307Y695638D1*
X1036931Y693013D1*
Y692357D1*
X1037588Y691044D1*
X1038244Y690388D1*
Y681858D1*
X1037588Y681202D1*
X1036931Y679233D1*
X1036275Y677921D1*
X1035619Y675953D1*
X1034307Y673984D1*
X1033651Y672672D1*
X1040212D1*
X1040868Y673328D1*
X1041525Y674640D1*
X1042837Y678577D1*
X1043493Y681858D1*
Y691701D1*
X1042181Y695638D1*
X1040868Y697606D1*
X1036931Y701543D1*
X1034963Y702856D1*
X1031026Y704168D1*
X1023152D1*
G37*
G36*
X936538Y789470D2*
Y766504D1*
X889950Y765848D1*
Y759286D1*
X942443D1*
Y789470D1*
X936538D1*
G37*
G36*
X893231Y752068D2*
X893015Y751272D1*
X892574Y750756D1*
X890606Y746819D1*
X889950Y744850D1*
X889294Y742226D1*
X888637Y737632D1*
Y734352D1*
X889294Y729758D1*
X889950Y727790D1*
X892574Y722541D1*
X897824Y717291D1*
X901105Y715323D1*
X904385Y714010D1*
X906354Y713354D1*
X909635Y712698D1*
X923414D1*
X926695Y713354D1*
X930632Y714667D1*
X933257Y715979D1*
X935225Y717291D1*
X940475Y722541D1*
X942443Y726478D1*
X943099Y728446D1*
X943756Y731071D1*
Y740913D1*
X943099Y743538D1*
X941787Y747475D1*
X939819Y751412D1*
X939162Y752068D1*
X931288D1*
X934569Y748131D1*
X935882Y746163D1*
X937194Y743538D1*
X937850Y740913D1*
X938506Y740257D1*
Y731727D1*
X937850Y731071D1*
X936538Y728446D1*
X935225Y726478D1*
X935010Y725682D1*
X934569Y725165D1*
X933257Y724509D1*
X931945Y723197D1*
X928008Y721228D1*
X926039Y720572D1*
X923414Y719916D1*
X918821Y719260D1*
X914228D1*
X909635Y719916D1*
X907010Y720572D1*
X903073Y721884D1*
X902417Y722541D1*
X899792Y723853D1*
X897168Y726478D1*
Y727134D1*
X895855Y729102D1*
X895199Y730415D1*
X894543Y733039D1*
X893887Y733695D1*
Y738289D1*
X894543Y738945D1*
X895199Y742226D1*
X897168Y746163D1*
X898480Y748131D1*
X901105Y751412D1*
Y752068D1*
X893231D1*
G37*
G36*
X924727Y707449D2*
X922758Y706793D1*
X920133Y705480D1*
X916853Y702199D1*
X914884Y698262D1*
X914228Y696294D1*
X911603Y685795D1*
X910291Y683170D1*
Y682514D1*
X908979Y681202D1*
X906354Y679890D1*
X904167Y679233D1*
X901980D1*
X899792Y679890D1*
X898480Y680546D1*
X895855Y683170D1*
Y683827D1*
X895199Y685139D1*
X894543Y687764D1*
X893887Y688420D1*
Y693013D1*
X894543Y693669D1*
X895199Y696294D1*
X895855Y698262D1*
X897824Y702199D1*
X899792Y704824D1*
Y705480D1*
X891918D1*
X891262Y704168D1*
X889950Y700231D1*
X889294Y697606D1*
X888637Y691701D1*
Y688420D1*
X889294Y684483D1*
X889950Y682514D1*
X891918Y678577D1*
X895199Y675296D1*
X897168Y673984D1*
X898480Y673328D1*
X900448Y672672D1*
X907666D1*
X909635Y673328D1*
X912259Y674640D1*
X915540Y677921D1*
X917509Y681858D1*
X918165Y683827D1*
X920790Y694325D1*
X921446Y696294D1*
Y696950D1*
X923414Y698919D1*
X926039Y700231D1*
X928008Y700887D1*
X929976D1*
X933913Y699575D1*
X937194Y696294D1*
Y695638D1*
X937850Y694325D1*
X938506Y693669D1*
Y684483D1*
X937850Y683827D1*
X937194Y681202D1*
X935225Y677265D1*
X933913Y675296D1*
X931288Y672016D1*
X939819D1*
X940475Y672672D1*
X941131Y674640D1*
X941787Y675953D1*
X943099Y679890D1*
X943756Y683170D1*
Y694325D1*
X943099Y696950D1*
X941787Y699575D1*
X940475Y701543D1*
X937194Y704824D1*
X933257Y706793D1*
X931288Y707449D1*
X924727D1*
G37*
G36*
X799399Y788157D2*
X791525Y785533D1*
X790212Y784877D1*
Y777002D1*
X790868Y776346D1*
X831551Y762567D1*
X841393Y759286D1*
X842706D1*
Y765848D1*
X840081Y766504D1*
X828270Y770441D1*
X827614Y771097D1*
Y790126D1*
X828270Y790782D1*
X842050Y795375D1*
X842706Y796031D1*
Y802593D1*
X799399Y788157D1*
X819740D1*
X820615Y788814D1*
X821490D1*
X822364Y788157D1*
Y773065D1*
X821564Y772381D1*
X820806Y772466D1*
X820396Y773065D1*
X818427Y773722D1*
X815803Y774378D1*
X798086Y780283D1*
Y780940D1*
X819740Y788157D1*
X799399D1*
G37*
G36*
X797430Y749443D2*
X795462Y747475D1*
X794149Y745506D1*
X792181Y741569D1*
X791525Y739601D1*
X790868Y736976D1*
X790212Y729758D1*
Y715323D1*
X842706D1*
Y735664D1*
X842050Y738945D1*
X841393Y740913D1*
X838769Y746163D1*
X832863Y752068D1*
X827614Y754693D1*
X823677Y756005D1*
X819740Y756661D1*
X813834D1*
X809241Y756005D1*
X805304Y754693D1*
X801367Y752724D1*
X799399Y751412D1*
X797430Y749443D1*
X814490D1*
X816022Y750100D1*
X817553D1*
X819084Y749443D1*
X824333Y748787D1*
X826301Y748131D1*
X830238Y746163D1*
X834832Y741569D1*
Y740913D1*
X835488Y739601D1*
X836144Y737632D1*
X836800Y735008D1*
X837456Y734352D1*
Y722541D1*
X823458Y721884D1*
X809460D1*
X795462Y722541D1*
Y731071D1*
X796118Y731727D1*
X796774Y736320D1*
X797430Y738289D1*
X798742Y740913D1*
X800055Y742882D1*
Y743538D1*
X801367Y744850D1*
X802679Y745506D1*
X803336Y746163D1*
X807273Y748131D1*
X809241Y748787D1*
X814490Y749443D1*
X797430D1*
G37*
G36*
X824989Y707449D2*
X823021Y706793D1*
X820396Y705480D1*
X817115Y702199D1*
X815147Y698262D1*
X814490Y696294D1*
X811866Y685795D1*
X810553Y683170D1*
Y682514D1*
X809241Y681202D1*
X806616Y679890D1*
X804429Y679233D1*
X802242D1*
X800055Y679890D1*
X798742Y680546D1*
X796118Y683170D1*
Y683827D1*
X795462Y685139D1*
X794805Y687764D1*
X794149Y688420D1*
Y693013D1*
X794805Y693669D1*
X795462Y696294D1*
X796118Y698262D1*
X798086Y702199D1*
X800055Y704824D1*
Y705480D1*
X792181D1*
X791525Y704168D1*
X790212Y700231D1*
X789556Y697606D1*
X788900Y691701D1*
Y688420D1*
X789556Y684483D1*
X790212Y682514D1*
X792181Y678577D1*
X795462Y675296D1*
X797430Y673984D1*
X798742Y673328D1*
X800711Y672672D1*
X807929D1*
X809897Y673328D1*
X812522Y674640D1*
X815803Y677921D1*
X817771Y681858D1*
X818427Y683827D1*
X821052Y694325D1*
X821708Y696294D1*
Y696950D1*
X823677Y698919D1*
X826301Y700231D1*
X828270Y700887D1*
X830238D1*
X834175Y699575D1*
X837456Y696294D1*
Y695638D1*
X838112Y694325D1*
X838769Y693669D1*
Y684483D1*
X838112Y683827D1*
X837456Y681202D1*
X835488Y677265D1*
X834175Y675296D1*
X831551Y672016D1*
X840081D1*
X840737Y672672D1*
X841393Y674640D1*
X842050Y675953D1*
X843362Y679890D1*
X844018Y683170D1*
Y694325D1*
X843362Y696950D1*
X842050Y699575D1*
X840737Y701543D1*
X837456Y704824D1*
X833519Y706793D1*
X831551Y707449D1*
X824989D1*
G37*
G36*
X1322102Y1420769D2*
X1321843Y1419814D1*
X1321315Y1419194D1*
X1319740Y1416044D1*
X1318952Y1411320D1*
Y1408170D1*
X1319740Y1403446D1*
X1320527Y1401084D1*
X1322102Y1397934D1*
X1328401Y1391635D1*
X1333126Y1389273D1*
X1336275Y1388485D1*
X1340212Y1387698D1*
X1348874D1*
X1352811Y1388485D1*
X1355173Y1389273D1*
X1359897Y1391635D1*
X1365409Y1397147D1*
X1366984Y1400296D1*
X1368559Y1405021D1*
Y1416832D1*
X1367771Y1419981D1*
X1366196Y1424706D1*
X1365409Y1426281D1*
X1364622Y1427068D1*
X1357535D1*
Y1426281D1*
X1359110Y1423919D1*
X1359897Y1422344D1*
X1361472Y1417619D1*
X1362259Y1416832D1*
Y1406596D1*
X1361472Y1405808D1*
X1360685Y1403446D1*
Y1402659D1*
X1355960Y1397934D1*
X1354385Y1397147D1*
X1352023Y1396359D1*
X1349399Y1395572D1*
X1346774D1*
X1344149Y1396359D1*
Y1428643D1*
X1341000D1*
X1333126Y1427856D1*
X1330763Y1427068D1*
X1326039Y1424706D1*
X1322102Y1420769D1*
X1337063D1*
X1337651Y1421275D1*
X1338059Y1421229D1*
X1338637Y1420769D1*
Y1396359D1*
X1337063Y1395572D1*
X1335488D1*
X1329189Y1398722D1*
X1326826Y1401084D1*
Y1401871D1*
X1326039Y1403446D1*
X1325252Y1405808D1*
X1324464Y1406596D1*
Y1411320D1*
X1325252Y1412107D1*
X1326826Y1416044D1*
X1326980Y1416603D1*
X1327614Y1417619D1*
X1329189Y1418407D1*
X1329976Y1419194D1*
X1332338Y1419981D1*
X1337063Y1420769D1*
X1322102D1*
G37*
G36*
X1302417Y1379037D2*
Y1371950D1*
X1367771D1*
Y1379037D1*
X1302417D1*
G37*
G36*
X1321315Y1359352D2*
X1320527Y1358564D1*
Y1352265D1*
X1321315Y1351478D1*
X1357535Y1350690D1*
X1359110Y1349115D1*
Y1348328D1*
X1361472Y1343604D1*
X1362259Y1342816D1*
Y1334942D1*
X1361472Y1334155D1*
Y1333367D1*
X1359897Y1331793D1*
X1358322Y1331005D1*
X1355173Y1330218D1*
X1320527Y1329430D1*
Y1322344D1*
X1356748D1*
X1359897Y1323131D1*
X1364622Y1325493D1*
X1366984Y1327856D1*
X1368559Y1330218D1*
X1369346Y1332580D1*
Y1341241D1*
X1368559Y1343604D1*
X1367771Y1345178D1*
X1366196Y1347541D1*
X1363834Y1349903D1*
Y1350690D1*
X1367771Y1351478D1*
Y1359352D1*
X1321315D1*
G37*
G36*
X1322102Y1302659D2*
X1321843Y1301703D1*
X1321315Y1301084D1*
X1320527Y1299509D1*
X1319740Y1297147D1*
X1318952Y1292422D1*
Y1290060D1*
X1319740Y1286123D1*
X1320527Y1283761D1*
X1321315Y1282186D1*
X1322889Y1279824D1*
X1326039Y1276674D1*
X1328401Y1275100D1*
X1331551Y1273525D1*
X1336275Y1271950D1*
X1340212Y1271163D1*
X1349661D1*
X1354385Y1271950D1*
X1359110Y1273525D1*
X1362259Y1275100D1*
X1365409Y1277462D1*
X1367771Y1280611D1*
X1368559Y1282186D1*
X1369346Y1284548D1*
Y1293210D1*
X1368559Y1295572D1*
X1366984Y1298722D1*
X1363834Y1301871D1*
Y1302659D1*
X1367771Y1303446D1*
Y1310533D1*
X1301630D1*
Y1303446D1*
X1322102Y1302659D1*
X1328401D1*
X1338112Y1303446D1*
X1347824D1*
X1357535Y1302659D1*
X1359110Y1301084D1*
Y1300296D1*
X1360685Y1297934D1*
X1361472Y1295572D1*
X1362259Y1294785D1*
Y1286911D1*
X1361472Y1286123D1*
X1360685Y1284548D1*
X1360426Y1283593D1*
X1359897Y1282974D1*
X1358322Y1282186D1*
X1357535Y1281399D1*
X1352811Y1279824D1*
X1347299Y1279037D1*
X1341787D1*
X1336275Y1279824D1*
X1333913Y1280611D1*
X1330763Y1282186D1*
X1326826Y1286123D1*
Y1286911D1*
X1326039Y1289273D1*
X1325252Y1290060D1*
Y1294785D1*
X1326039Y1295572D1*
X1326826Y1299509D1*
X1328401Y1302659D1*
X1322102D1*
G37*
G36*
X1323677Y1257777D2*
X1322102Y1256202D1*
X1320527Y1253052D1*
X1319740Y1250690D1*
X1318952Y1246753D1*
Y1243604D1*
X1319740Y1238879D1*
X1320527Y1236517D1*
X1321315Y1234942D1*
X1322889Y1232580D1*
X1326826Y1228643D1*
X1329189Y1227068D1*
X1330763Y1226281D1*
X1335488Y1224706D1*
X1340212Y1223919D1*
X1348874D1*
X1353598Y1224706D1*
X1355960Y1225493D1*
X1360685Y1227856D1*
X1363047Y1229430D1*
X1365409Y1231793D1*
X1366984Y1234155D1*
X1368559Y1237304D1*
X1369346Y1239667D1*
Y1249903D1*
X1367771Y1254627D1*
X1366196Y1256989D1*
X1361472Y1261714D1*
X1356748Y1264076D1*
X1354385Y1264863D1*
X1350448Y1265651D1*
X1338637D1*
X1334700Y1264863D1*
X1332338Y1264076D1*
X1327614Y1261714D1*
X1323677Y1257777D1*
X1341000D1*
X1343362Y1258564D1*
X1345724D1*
X1348086Y1257777D1*
X1353598Y1256989D1*
X1355960Y1256202D1*
X1357535Y1255415D1*
X1358322Y1254627D1*
X1359897Y1253840D1*
X1360532Y1252823D1*
X1360685Y1252265D1*
X1362259Y1249903D1*
X1363047Y1249115D1*
Y1241241D1*
X1362259Y1240454D1*
Y1238879D1*
X1358322Y1234942D1*
X1355173Y1233367D1*
X1352023Y1232580D1*
X1346774Y1231793D1*
X1341525D1*
X1336275Y1232580D1*
X1331551Y1234155D1*
X1330763Y1234942D1*
X1329189Y1235730D1*
X1327614Y1237304D1*
Y1238092D1*
X1326826Y1239667D1*
X1326039Y1242029D1*
X1325252Y1242816D1*
Y1246753D1*
X1326039Y1247541D1*
X1326826Y1250690D1*
Y1251478D1*
X1329976Y1254627D1*
X1333126Y1256202D1*
X1335488Y1256989D1*
X1341000Y1257777D1*
X1323677D1*
G37*
G36*
X1304779Y1213682D2*
Y1203446D1*
X1305567Y1202659D1*
X1310291Y1200296D1*
X1337850Y1188485D1*
X1340212Y1187698D1*
Y1186911D1*
X1337850Y1186123D1*
X1309504Y1173525D1*
X1304779Y1171163D1*
Y1160139D1*
X1367771D1*
Y1167226D1*
X1313441Y1168013D1*
X1315015Y1168800D1*
X1317378Y1169588D1*
X1322889Y1171950D1*
X1329976Y1175100D1*
X1335488Y1177462D1*
X1342574Y1180611D1*
X1348086Y1182974D1*
X1349661Y1183761D1*
X1350448Y1184548D1*
Y1189273D1*
X1345724Y1191635D1*
X1331551Y1197934D1*
X1326039Y1200296D1*
X1318952Y1203446D1*
X1316590Y1204233D1*
X1313441Y1205808D1*
X1367771Y1206596D1*
Y1213682D1*
X1304779D1*
G37*
G36*
X1313441Y1114470D2*
X1311078Y1112107D1*
X1309504Y1109745D1*
X1307141Y1105021D1*
X1306354Y1102659D1*
X1305567Y1099509D1*
X1304779Y1090848D1*
Y1073525D1*
X1367771D1*
Y1097934D1*
X1366984Y1101871D1*
X1366196Y1104233D1*
X1363047Y1110533D1*
X1355960Y1117619D1*
X1349661Y1120769D1*
X1344937Y1122344D1*
X1340212Y1123131D1*
X1333126D1*
X1327614Y1122344D1*
X1322889Y1120769D1*
X1318165Y1118407D1*
X1315803Y1116832D1*
X1313441Y1114470D1*
X1333913D1*
X1335750Y1115257D1*
X1337588D1*
X1339425Y1114470D1*
X1345724Y1113682D1*
X1348086Y1112895D1*
X1352811Y1110533D1*
X1358322Y1105021D1*
Y1104233D1*
X1359110Y1102659D1*
X1359897Y1100296D1*
X1360685Y1097147D1*
X1361472Y1096359D1*
Y1082186D1*
X1344674Y1081399D1*
X1327876D1*
X1311078Y1082186D1*
Y1092422D1*
X1311866Y1093210D1*
X1312653Y1098722D1*
X1313441Y1101084D1*
X1315015Y1104233D1*
X1316590Y1106596D1*
Y1107383D1*
X1318165Y1108958D1*
X1319740Y1109745D1*
X1320527Y1110533D1*
X1325252Y1112895D1*
X1327614Y1113682D1*
X1333913Y1114470D1*
X1313441D1*
G37*
G36*
X1304779Y1064076D2*
Y1024706D1*
X1367771D1*
Y1064076D1*
X1360685D1*
Y1033367D1*
X1352811Y1032580D1*
X1344937D1*
X1337063Y1033367D1*
Y1061714D1*
X1329976D1*
Y1033367D1*
X1323939Y1032580D1*
X1317903D1*
X1311866Y1033367D1*
Y1064076D1*
X1304779D1*
G37*
G36*
X1360685Y1017619D2*
Y990060D1*
X1304779Y989273D1*
Y981399D1*
X1367771D1*
Y1017619D1*
X1360685D1*
G37*
G36*
X1311078Y962501D2*
X1307929Y959352D1*
X1306354Y956989D1*
X1305567Y955415D1*
X1303992Y950690D1*
X1303204Y945178D1*
Y941241D1*
X1303992Y936517D1*
X1304779Y933367D1*
X1307141Y928643D1*
X1308716Y926281D1*
X1312653Y922344D1*
X1315015Y920769D1*
X1319740Y918407D1*
X1324464Y916832D1*
X1327614Y916044D1*
X1344937D1*
X1348874Y916832D1*
X1353598Y918407D1*
X1356748Y919981D1*
X1359110Y921556D1*
X1362259Y923919D1*
X1363047Y924706D1*
X1365409Y927856D1*
X1366984Y930218D1*
X1367771Y932580D1*
X1368559Y934155D1*
X1369346Y937304D1*
Y949115D1*
X1368559Y952265D1*
X1367771Y954627D1*
X1366196Y957777D1*
X1364622Y960139D1*
X1359897Y964863D1*
X1357535Y966438D1*
X1352811Y968800D1*
X1350448Y969588D1*
X1347299Y970375D1*
X1342574Y971163D1*
X1330763D1*
X1326039Y970375D1*
X1322889Y969588D1*
X1320527Y968800D1*
X1314228Y965651D1*
X1311078Y962501D1*
X1330763D1*
X1334700Y963289D1*
X1338637D1*
X1342574Y962501D1*
X1347299Y961714D1*
X1350448Y960926D1*
X1355173Y958564D1*
X1355960Y957777D1*
X1357535Y956989D1*
X1359897Y954627D1*
Y953840D1*
X1361472Y951478D1*
X1362259Y949115D1*
X1363047Y948328D1*
Y938092D1*
X1362259Y937304D1*
X1360685Y934155D1*
Y933367D1*
X1355960Y928643D1*
X1351236Y926281D1*
X1348874Y925493D1*
X1344937Y924706D1*
X1339425Y923919D1*
X1333913D1*
X1328401Y924706D1*
X1324464Y925493D1*
X1322102Y926281D1*
X1317378Y928643D1*
X1316590Y929430D1*
X1315015Y930218D1*
X1313441Y931793D1*
Y932580D1*
X1311866Y934942D1*
X1311078Y936517D1*
X1310291Y939667D1*
X1309504Y940454D1*
Y945966D1*
X1310291Y946753D1*
X1311078Y949903D1*
X1311866Y952265D1*
Y953052D1*
X1316590Y957777D1*
X1322889Y960926D1*
X1326039Y961714D1*
X1330763Y962501D1*
X1311078D1*
G37*
G36*
X1415803Y1361714D2*
X1415544Y1360759D1*
X1415015Y1360139D1*
X1414228Y1357777D1*
X1413441Y1356202D1*
X1412653Y1351478D1*
Y1349115D1*
X1413441Y1345178D1*
X1414228Y1342816D1*
X1415015Y1341241D1*
X1416590Y1338879D1*
X1420527Y1334942D1*
X1426826Y1331793D1*
X1429189Y1331005D1*
X1433126Y1330218D1*
X1442574D1*
X1446511Y1331005D1*
X1449661Y1331793D1*
X1452811Y1333367D1*
X1455173Y1334942D1*
X1458322Y1338092D1*
X1459897Y1341241D1*
X1460685Y1343604D1*
Y1353052D1*
X1459897Y1355415D1*
X1458322Y1358564D1*
X1455960Y1360926D1*
Y1361714D1*
X1458847Y1362501D1*
X1461735D1*
X1464622Y1361714D1*
X1466984Y1360926D1*
X1470133Y1359352D1*
X1471708Y1357777D1*
Y1356989D1*
X1472496Y1355415D1*
X1473283Y1354627D1*
Y1343604D1*
X1472496Y1342816D1*
X1470921Y1336517D1*
X1470133Y1334942D1*
X1478008D1*
X1478795Y1337304D1*
X1479582Y1341241D1*
Y1354627D1*
X1478795Y1357777D1*
X1477220Y1360926D1*
X1475645Y1363289D1*
X1473283Y1365651D1*
X1468559Y1368013D1*
X1466196Y1368800D1*
X1462259Y1369588D1*
X1414228D1*
Y1363289D1*
X1415803Y1361714D1*
X1422102D1*
X1431288Y1362501D1*
X1440475D1*
X1449661Y1361714D1*
X1452023Y1359352D1*
Y1358564D1*
X1452811Y1356989D1*
X1453598Y1354627D1*
X1454385Y1353840D1*
Y1345966D1*
X1453598Y1345178D1*
Y1343604D1*
X1451236Y1341241D1*
X1448086Y1339667D1*
X1445724Y1338879D1*
X1440475Y1338092D1*
X1435225D1*
X1429976Y1338879D1*
X1427614Y1339667D1*
X1424464Y1341241D1*
X1420527Y1345178D1*
Y1345966D1*
X1419740Y1348328D1*
X1418952Y1349115D1*
Y1353840D1*
X1419740Y1354627D1*
X1420527Y1357777D1*
X1421315Y1360139D1*
X1422102Y1361714D1*
X1415803D1*
G37*
G36*
X1417378Y1316832D2*
X1415803Y1315257D1*
X1414228Y1312107D1*
X1413441Y1309745D1*
X1412653Y1305808D1*
Y1302659D1*
X1413441Y1297934D1*
X1414228Y1295572D1*
X1415015Y1293997D1*
X1416590Y1291635D1*
X1420527Y1287698D1*
X1422889Y1286123D1*
X1424464Y1285336D1*
X1429189Y1283761D1*
X1433913Y1282974D1*
X1442574D1*
X1447299Y1283761D1*
X1449661Y1284548D1*
X1454385Y1286911D1*
X1456748Y1288485D1*
X1459110Y1290848D1*
X1460685Y1293210D1*
X1462259Y1296359D1*
X1463047Y1298722D1*
Y1308958D1*
X1461472Y1313682D1*
X1459897Y1316044D1*
X1455173Y1320769D1*
X1450448Y1323131D1*
X1448086Y1323919D1*
X1444149Y1324706D1*
X1432338D1*
X1428401Y1323919D1*
X1426039Y1323131D1*
X1421315Y1320769D1*
X1417378Y1316832D1*
X1434700D1*
X1437063Y1317619D1*
X1439425D1*
X1441787Y1316832D1*
X1447299Y1316044D1*
X1449661Y1315257D1*
X1451236Y1314470D1*
X1452023Y1313682D1*
X1453598Y1312895D1*
X1454232Y1311878D1*
X1454385Y1311320D1*
X1455960Y1308958D1*
X1456748Y1308170D1*
Y1300296D1*
X1455960Y1299509D1*
Y1297934D1*
X1452023Y1293997D1*
X1448874Y1292422D1*
X1445724Y1291635D1*
X1440475Y1290848D1*
X1435225D1*
X1429976Y1291635D1*
X1425252Y1293210D1*
X1424464Y1293997D1*
X1422889Y1294785D1*
X1421315Y1296359D1*
Y1297147D1*
X1420527Y1298722D1*
X1419740Y1301084D1*
X1418952Y1301871D1*
Y1305808D1*
X1419740Y1306596D1*
X1420527Y1309745D1*
Y1310533D1*
X1423677Y1313682D1*
X1426826Y1315257D1*
X1429189Y1316044D1*
X1434700Y1316832D1*
X1417378D1*
G37*
G36*
X1396118Y1274312D2*
Y1267226D1*
X1461472D1*
Y1274312D1*
X1396118D1*
G37*
G36*
X1415803Y1246753D2*
X1415544Y1245798D1*
X1415015Y1245178D1*
X1414228Y1243604D1*
X1413441Y1241241D1*
X1412653Y1236517D1*
Y1234155D1*
X1413441Y1230218D1*
X1414228Y1227856D1*
X1415015Y1226281D1*
X1416590Y1223919D1*
X1419740Y1220769D1*
X1422102Y1219194D1*
X1425252Y1217619D1*
X1429976Y1216044D1*
X1433913Y1215257D1*
X1443362D1*
X1448086Y1216044D1*
X1452811Y1217619D1*
X1455960Y1219194D1*
X1459110Y1221556D1*
X1461472Y1224706D1*
X1462259Y1226281D1*
X1463047Y1228643D1*
Y1237304D1*
X1462259Y1239667D1*
X1460685Y1242816D1*
X1457535Y1245966D1*
Y1246753D1*
X1461472Y1247541D1*
Y1254627D1*
X1395330D1*
Y1247541D1*
X1415803Y1246753D1*
X1422102D1*
X1431813Y1247541D1*
X1441525D1*
X1451236Y1246753D1*
X1452811Y1245178D1*
Y1244391D1*
X1454385Y1242029D1*
X1455173Y1239667D1*
X1455960Y1238879D1*
Y1231005D1*
X1455173Y1230218D1*
X1454385Y1228643D1*
X1454127Y1227688D1*
X1453598Y1227068D1*
X1452023Y1226281D1*
X1451236Y1225493D1*
X1446511Y1223919D1*
X1441000Y1223131D1*
X1435488D1*
X1429976Y1223919D1*
X1427614Y1224706D1*
X1424464Y1226281D1*
X1420527Y1230218D1*
Y1231005D1*
X1419740Y1233367D1*
X1418952Y1234155D1*
Y1238879D1*
X1419740Y1239667D1*
X1420527Y1243604D1*
X1422102Y1246753D1*
X1415803D1*
G37*
G36*
X1396118Y1206596D2*
Y1199509D1*
X1461472D1*
Y1206596D1*
X1396118D1*
G37*
G36*
X1399267Y1187698D2*
X1398480Y1186911D1*
Y1179037D1*
X1406354D1*
Y1187698D1*
X1399267D1*
G37*
G36*
X1414228Y1186911D2*
Y1179824D1*
X1461472D1*
Y1186911D1*
X1414228D1*
G37*
G36*
X1415015Y1167226D2*
X1414228Y1166438D1*
Y1160139D1*
X1415015Y1159352D1*
X1451236Y1158564D1*
X1452811Y1156989D1*
Y1156202D1*
X1455173Y1151478D1*
X1455960Y1150690D1*
Y1142816D1*
X1455173Y1142029D1*
Y1141241D1*
X1453598Y1139667D1*
X1452023Y1138879D1*
X1448874Y1138092D1*
X1414228Y1137304D1*
Y1130218D1*
X1450448D1*
X1453598Y1131005D1*
X1458322Y1133367D1*
X1460685Y1135730D1*
X1462259Y1138092D1*
X1463047Y1140454D1*
Y1149115D1*
X1462259Y1151478D1*
X1461472Y1153052D1*
X1459897Y1155415D1*
X1457535Y1157777D1*
Y1158564D1*
X1461472Y1159352D1*
Y1167226D1*
X1415015D1*
G37*
G36*
X1415803Y1113682D2*
X1415015Y1112895D1*
X1413441Y1109745D1*
X1412653Y1105808D1*
Y1103446D1*
X1413441Y1099509D1*
X1414228Y1097147D1*
X1415015Y1095572D1*
X1416590Y1093210D1*
X1418952Y1090848D1*
X1396905Y1090060D1*
X1396118Y1089273D1*
Y1082974D1*
X1396905Y1082186D1*
X1461472D1*
Y1089273D1*
X1459897Y1090060D1*
X1460050Y1090618D1*
X1460685Y1091635D1*
X1462259Y1094785D1*
X1463047Y1097147D1*
Y1106596D1*
X1462259Y1108958D1*
X1461472Y1110533D1*
X1459897Y1112895D1*
X1456748Y1116044D1*
X1454385Y1117619D1*
X1449661Y1119981D1*
X1447299Y1120769D1*
X1444149Y1121556D1*
X1429976D1*
X1426826Y1120769D1*
X1422102Y1119194D1*
X1419740Y1117619D1*
X1416590Y1115257D1*
X1415803Y1113682D1*
X1433126D1*
X1436275Y1114470D1*
X1439425D1*
X1442574Y1113682D1*
X1447299Y1112895D1*
X1449661Y1112107D1*
X1451236Y1111320D1*
X1452023Y1110533D1*
X1453598Y1109745D1*
X1455173Y1108170D1*
Y1107383D1*
X1455960Y1105808D1*
X1456748Y1105021D1*
Y1095572D1*
X1455960Y1094785D1*
X1455173Y1092422D1*
X1454914Y1091467D1*
X1454385Y1090848D1*
X1444412Y1090060D1*
X1434438D1*
X1424464Y1090848D1*
X1423530Y1091733D1*
X1423677Y1092422D1*
X1422102Y1094785D1*
X1421315Y1097147D1*
X1420527Y1100296D1*
X1419740Y1101084D1*
Y1105021D1*
X1420527Y1105808D1*
X1422102Y1108958D1*
X1424464Y1111320D1*
X1426039Y1112107D1*
X1428401Y1112895D1*
X1433126Y1113682D1*
X1415803D1*
G37*
G36*
X1416590Y1045178D2*
X1415803Y1044391D1*
X1414228Y1041241D1*
X1413441Y1037304D1*
Y1034942D1*
X1414228Y1031005D1*
X1415803Y1027856D1*
X1420527Y1023131D1*
X1422889Y1021556D1*
X1424464Y1020769D1*
X1427614Y1019981D1*
X1431551Y1019194D1*
X1438637D1*
X1443362Y1019981D1*
X1445724Y1020769D1*
X1448874Y1022344D1*
X1451236Y1023919D1*
X1452811Y1025493D1*
X1454385Y1027856D1*
X1455173Y1030218D1*
Y1038092D1*
X1454385Y1040454D1*
X1452811Y1042816D1*
X1450448Y1045178D1*
X1452023Y1045966D1*
X1455173Y1046753D1*
Y1064863D1*
X1448874Y1068013D1*
X1444149Y1069588D1*
X1440212Y1070375D1*
X1426039D1*
X1422102Y1069588D1*
X1417378Y1068013D1*
X1411078Y1064863D1*
X1408716Y1063289D1*
X1403204Y1057777D1*
X1401630Y1055415D1*
X1399267Y1050690D1*
X1397693Y1045966D1*
X1396905Y1039667D1*
Y1035730D1*
X1397693Y1030218D1*
X1398480Y1027068D1*
X1399267Y1024706D1*
X1401630Y1019981D1*
X1403992Y1016832D1*
X1411078Y1009745D1*
X1413441Y1008170D1*
X1419740Y1005021D1*
X1422102Y1004233D1*
X1425252Y1003446D1*
X1429976Y1002659D1*
X1438637D1*
X1443362Y1003446D1*
X1446511Y1004233D1*
X1451236Y1005808D1*
X1454385Y1007383D1*
X1456748Y1008958D1*
X1459897Y1011320D1*
X1463834Y1015257D1*
X1466196Y1018407D1*
X1469346Y1024706D1*
X1470133Y1027068D1*
X1470921Y1031005D1*
Y1046753D1*
X1470133Y1051478D1*
X1465409D1*
Y1047541D1*
X1466196Y1046753D1*
Y1031005D1*
X1465409Y1030218D1*
X1464622Y1027068D1*
X1463834Y1024706D1*
X1460685Y1019981D1*
Y1019194D1*
X1457535Y1016044D1*
X1455960Y1015257D1*
X1454385Y1013682D1*
X1449661Y1011320D1*
X1444937Y1009745D1*
X1441000Y1008958D1*
X1436538Y1008170D1*
X1432076D1*
X1427614Y1008958D1*
X1423677Y1009745D1*
X1421315Y1010533D1*
X1415015Y1013682D1*
X1414228Y1014470D1*
X1412653Y1015257D1*
X1406354Y1021556D1*
Y1022344D1*
X1403992Y1027068D1*
X1403204Y1029430D1*
X1402417Y1033367D1*
X1401630Y1034155D1*
Y1041241D1*
X1402417Y1042029D1*
X1403204Y1045966D1*
X1404779Y1050690D1*
X1406354Y1053052D1*
Y1053840D1*
X1411078Y1058564D1*
X1412653Y1059352D1*
X1413441Y1060139D1*
X1418165Y1062501D1*
X1420527Y1063289D1*
X1423677Y1064076D1*
X1429189Y1064863D1*
X1432601Y1065651D1*
X1436013D1*
X1439425Y1064863D1*
X1445724Y1064076D1*
X1448874Y1063289D1*
X1450448Y1062501D1*
X1451236Y1061714D1*
Y1053052D1*
X1415015Y1052265D1*
X1414228Y1051478D1*
Y1045966D1*
X1416590Y1045178D1*
X1421315D1*
X1429451Y1045966D1*
X1437588D1*
X1445724Y1045178D1*
X1446358Y1044162D1*
X1446511Y1043604D1*
X1448086Y1041241D1*
X1448874Y1039667D1*
X1449661Y1038879D1*
Y1031793D1*
X1446511Y1028643D1*
X1444937Y1027856D1*
X1442574Y1027068D1*
X1437850Y1026281D1*
X1436013Y1025493D1*
X1434175D1*
X1432338Y1026281D1*
X1426826Y1027068D1*
X1423677Y1028643D1*
X1419740Y1032580D1*
Y1034155D1*
X1418952Y1034942D1*
Y1038879D1*
X1419740Y1039667D1*
X1420527Y1042816D1*
X1421315Y1044391D1*
Y1045178D1*
X1416590D1*
G37*
G36*
X1498480Y1283761D2*
X1496905Y1282186D1*
X1496118Y1280611D1*
X1495330Y1278249D1*
X1494543Y1274312D1*
Y1271163D1*
X1495330Y1266438D1*
X1497693Y1261714D1*
X1500842Y1258564D1*
X1503204Y1256989D1*
X1506354Y1255415D1*
X1508716Y1254627D1*
X1511866Y1253840D1*
X1515803Y1253052D1*
X1539425D1*
X1543362Y1253840D1*
X1546511Y1254627D1*
X1548874Y1255415D1*
X1553598Y1257777D1*
X1555960Y1259352D1*
X1556748Y1260139D1*
X1558322Y1262501D1*
X1559897Y1265651D1*
X1560685Y1268013D1*
Y1277462D1*
X1559897Y1279824D1*
X1558322Y1282974D1*
X1554385Y1286911D1*
X1552023Y1288485D1*
X1550448Y1289273D1*
X1545724Y1290848D1*
X1542574Y1291635D1*
X1537063Y1292422D1*
X1518952D1*
X1513441Y1291635D1*
X1510291Y1290848D1*
X1505567Y1289273D1*
X1502417Y1287698D1*
X1498480Y1283761D1*
X1515803D1*
X1523677Y1284548D1*
X1531551D1*
X1539425Y1283761D1*
X1544937Y1282974D1*
X1549661Y1281399D1*
X1550448Y1280611D1*
X1552023Y1279824D1*
X1552658Y1278807D1*
X1552811Y1278249D1*
X1553598Y1276674D1*
X1554385Y1275887D1*
Y1268800D1*
X1553598Y1268013D1*
Y1267226D1*
X1551236Y1264863D1*
X1546511Y1262501D1*
X1542574Y1261714D1*
X1532863Y1260926D1*
X1523152D1*
X1513441Y1261714D1*
X1509504Y1262501D1*
X1507141Y1263289D1*
X1505567Y1264076D1*
X1501630Y1268013D1*
Y1269588D1*
X1500842Y1270375D1*
Y1274312D1*
X1501630Y1275100D1*
X1502417Y1277462D1*
Y1278249D1*
X1504779Y1280611D1*
X1506354Y1281399D1*
X1511078Y1282974D1*
X1515803Y1283761D1*
X1498480D1*
G37*
G36*
X1513441Y1238092D2*
X1512653Y1237304D1*
X1511078Y1234155D1*
X1510291Y1230218D1*
Y1227856D1*
X1511078Y1223919D1*
X1514228Y1217619D1*
X1516590Y1215257D1*
X1512653Y1214470D1*
X1511866Y1213682D1*
Y1207383D1*
X1512653Y1206596D1*
X1576433D1*
Y1214470D1*
X1557535Y1215257D1*
X1557688Y1215815D1*
X1558322Y1216832D1*
X1559897Y1221556D1*
Y1231005D1*
X1559110Y1233367D1*
X1558322Y1234942D1*
X1556748Y1237304D1*
X1552811Y1241241D1*
X1550448Y1242816D1*
X1548874Y1243604D1*
X1544149Y1245178D1*
X1541000Y1245966D1*
X1527614D1*
X1524464Y1245178D1*
X1519740Y1243604D1*
X1518165Y1242816D1*
X1515015Y1240454D1*
X1513441Y1238879D1*
Y1238092D1*
X1530763D1*
X1533913Y1238879D1*
X1537063D1*
X1540212Y1238092D1*
X1544149Y1237304D1*
X1546511Y1236517D1*
X1548086Y1235730D1*
X1548874Y1234942D1*
X1550448Y1234155D1*
X1551083Y1233138D1*
X1551236Y1232580D1*
X1552811Y1230218D1*
X1553598Y1229430D1*
Y1219981D1*
X1552811Y1219194D1*
X1552023Y1216832D1*
X1551764Y1215877D1*
X1551236Y1215257D1*
X1541525Y1214470D1*
X1531813D1*
X1522102Y1215257D1*
Y1216044D1*
X1520527Y1218407D1*
X1518952Y1221556D1*
X1518165Y1224706D1*
X1517378Y1225493D1*
Y1229430D1*
X1518165Y1230218D1*
X1519740Y1233367D1*
X1522102Y1235730D1*
X1523677Y1236517D1*
X1526039Y1237304D1*
X1530763Y1238092D1*
X1513441D1*
G37*
G36*
X1554385Y1193210D2*
X1553598Y1192422D1*
Y1182186D1*
X1496118Y1181399D1*
Y1175887D1*
X1500842Y1174312D1*
X1503992Y1171163D1*
Y1169588D1*
X1504779Y1162501D1*
X1509504D1*
Y1173525D1*
X1524202Y1174312D1*
X1538900D1*
X1553598Y1173525D1*
Y1162501D1*
X1559110D1*
Y1193210D1*
X1554385D1*
G37*
G36*
X1496118Y1152265D2*
Y1145178D1*
X1496905Y1144391D1*
X1548874Y1127068D1*
X1547299Y1126281D1*
X1511866Y1114470D1*
X1508716Y1113682D1*
X1496905Y1109745D1*
X1496118Y1108958D1*
Y1101084D1*
X1497693D1*
X1507141Y1104233D1*
X1534700Y1113682D1*
X1557535Y1121556D1*
X1559110Y1122344D1*
Y1131005D1*
X1555960Y1132580D1*
X1500842Y1151478D1*
X1498480Y1152265D1*
X1496118D1*
G37*
G36*
X1099267Y1757974D2*
X1091393Y1755349D1*
X1090081Y1754693D1*
Y1746819D1*
X1090737Y1746163D1*
X1131420Y1732383D1*
X1141262Y1729102D1*
X1142574D1*
Y1735664D1*
X1139950Y1736320D1*
X1128139Y1740257D1*
X1127483Y1740913D1*
Y1759942D1*
X1128139Y1760598D1*
X1141918Y1765191D1*
X1142574Y1765848D1*
Y1772409D1*
X1099267Y1757974D1*
X1119609D1*
X1120483Y1758630D1*
X1121358D1*
X1122233Y1757974D1*
Y1742882D1*
X1121433Y1742197D1*
X1120675Y1742282D1*
X1120265Y1742882D1*
X1118296Y1743538D1*
X1115672Y1744194D1*
X1097955Y1750100D1*
Y1750756D1*
X1119609Y1757974D1*
X1099267D1*
G37*
G36*
X1097299Y1719260D2*
X1095330Y1717291D1*
X1094018Y1715323D1*
X1092050Y1711386D1*
X1091393Y1709417D1*
X1090737Y1706793D1*
X1090081Y1699575D1*
Y1685139D1*
X1142574D1*
Y1705480D1*
X1141918Y1708761D1*
X1141262Y1710730D1*
X1138637Y1715979D1*
X1132732Y1721884D1*
X1127483Y1724509D1*
X1123546Y1725821D1*
X1119609Y1726478D1*
X1113703D1*
X1109110Y1725821D1*
X1105173Y1724509D1*
X1101236Y1722541D1*
X1099267Y1721228D1*
X1097299Y1719260D1*
X1114359D1*
X1115890Y1719916D1*
X1117421D1*
X1118952Y1719260D1*
X1124202Y1718604D1*
X1126170Y1717947D1*
X1130107Y1715979D1*
X1134700Y1711386D1*
Y1710730D1*
X1135357Y1709417D1*
X1136013Y1707449D1*
X1136669Y1704824D1*
X1137325Y1704168D1*
Y1692357D1*
X1123327Y1691701D1*
X1109329D1*
X1095330Y1692357D1*
Y1700887D1*
X1095987Y1701543D1*
X1096643Y1706136D1*
X1097299Y1708105D1*
X1098611Y1710730D1*
X1099924Y1712698D1*
Y1713354D1*
X1101236Y1714667D1*
X1102548Y1715323D1*
X1103204Y1715979D1*
X1107141Y1717947D1*
X1109110Y1718604D1*
X1114359Y1719260D1*
X1097299D1*
G37*
G36*
X1124858Y1677265D2*
X1122889Y1676609D1*
X1120265Y1675296D1*
X1116984Y1672016D1*
X1115015Y1668079D1*
X1114359Y1666110D1*
X1111735Y1655611D1*
X1110422Y1652987D1*
Y1652331D1*
X1109110Y1651018D1*
X1106485Y1649706D1*
X1104298Y1649050D1*
X1102111D1*
X1099924Y1649706D1*
X1098611Y1650362D1*
X1095987Y1652987D1*
Y1653643D1*
X1095330Y1654955D1*
X1094674Y1657580D1*
X1094018Y1658236D1*
Y1662829D1*
X1094674Y1663485D1*
X1095330Y1666110D1*
X1095987Y1668079D1*
X1097955Y1672016D1*
X1099924Y1674640D1*
Y1675296D1*
X1092050D1*
X1091393Y1673984D1*
X1090081Y1670047D1*
X1089425Y1667422D1*
X1088769Y1661517D1*
Y1658236D1*
X1089425Y1654299D1*
X1090081Y1652331D1*
X1092050Y1648394D1*
X1095330Y1645113D1*
X1097299Y1643800D1*
X1098611Y1643144D1*
X1100580Y1642488D1*
X1107798D1*
X1109766Y1643144D1*
X1112391Y1644457D1*
X1115672Y1647737D1*
X1117640Y1651674D1*
X1118296Y1653643D1*
X1120921Y1664142D1*
X1121577Y1666110D1*
Y1666766D1*
X1123546Y1668735D1*
X1126170Y1670047D1*
X1128139Y1670703D1*
X1130107D1*
X1134044Y1669391D1*
X1137325Y1666110D1*
Y1665454D1*
X1137981Y1664142D1*
X1138637Y1663485D1*
Y1654299D1*
X1137981Y1653643D1*
X1137325Y1651018D1*
X1135357Y1647081D1*
X1134044Y1645113D1*
X1131420Y1641832D1*
X1139950D1*
X1140606Y1642488D1*
X1141262Y1644457D1*
X1141918Y1645769D1*
X1143231Y1649706D1*
X1143887Y1652987D1*
Y1664142D1*
X1143231Y1666766D1*
X1141918Y1669391D1*
X1140606Y1671359D1*
X1137325Y1674640D1*
X1133388Y1676609D1*
X1131420Y1677265D1*
X1124858D1*
G37*
G36*
X1299399Y1914798D2*
Y1891832D1*
X1252811Y1891176D1*
Y1884614D1*
X1305304D1*
Y1914798D1*
X1299399D1*
G37*
G36*
X1256092Y1877396D2*
X1255876Y1876600D1*
X1255435Y1876084D1*
X1253467Y1872147D1*
X1252811Y1870178D1*
X1252154Y1867554D1*
X1251498Y1862961D1*
Y1859680D1*
X1252154Y1855086D1*
X1252811Y1853118D1*
X1255435Y1847869D1*
X1260685Y1842619D1*
X1263966Y1840651D1*
X1267246Y1839338D1*
X1269215Y1838682D1*
X1272496Y1838026D1*
X1286275D1*
X1289556Y1838682D1*
X1293493Y1839995D1*
X1296118Y1841307D1*
X1298086Y1842619D1*
X1303336Y1847869D1*
X1305304Y1851806D1*
X1305960Y1853774D1*
X1306616Y1856399D1*
Y1866241D1*
X1305960Y1868866D1*
X1304648Y1872803D1*
X1302679Y1876740D1*
X1302023Y1877396D1*
X1294149D1*
X1297430Y1873459D1*
X1298742Y1871491D1*
X1300055Y1868866D1*
X1300711Y1866241D1*
X1301367Y1865585D1*
Y1857055D1*
X1300711Y1856399D1*
X1299399Y1853774D1*
X1298086Y1851806D1*
X1297871Y1851010D1*
X1297430Y1850493D1*
X1296118Y1849837D1*
X1294805Y1848525D1*
X1290868Y1846556D1*
X1288900Y1845900D1*
X1286275Y1845244D1*
X1281682Y1844588D1*
X1277089D1*
X1272496Y1845244D1*
X1269871Y1845900D1*
X1265934Y1847212D1*
X1265278Y1847869D1*
X1262653Y1849181D1*
X1260029Y1851806D1*
Y1852462D1*
X1258716Y1854430D1*
X1258060Y1855743D1*
X1257404Y1858367D1*
X1256748Y1859023D1*
Y1863617D1*
X1257404Y1864273D1*
X1258060Y1867554D1*
X1260029Y1871491D1*
X1261341Y1873459D1*
X1263966Y1876740D1*
Y1877396D1*
X1256092D1*
G37*
G36*
X1287588Y1832777D2*
X1285619Y1832121D1*
X1282994Y1830808D1*
X1279714Y1827527D1*
X1277745Y1823590D1*
X1277089Y1821622D1*
X1274464Y1811123D1*
X1273152Y1808499D1*
Y1807842D1*
X1271840Y1806530D1*
X1269215Y1805218D1*
X1267028Y1804562D1*
X1264840D1*
X1262653Y1805218D1*
X1261341Y1805874D1*
X1258716Y1808499D1*
Y1809155D1*
X1258060Y1810467D1*
X1257404Y1813092D1*
X1256748Y1813748D1*
Y1818341D1*
X1257404Y1818997D1*
X1258060Y1821622D1*
X1258716Y1823590D1*
X1260685Y1827527D1*
X1262653Y1830152D1*
Y1830808D1*
X1254779D1*
X1254123Y1829496D1*
X1252811Y1825559D1*
X1252154Y1822934D1*
X1251498Y1817029D1*
Y1813748D1*
X1252154Y1809811D1*
X1252811Y1807842D1*
X1254779Y1803905D1*
X1258060Y1800625D1*
X1260029Y1799312D1*
X1261341Y1798656D1*
X1263309Y1798000D1*
X1270527D1*
X1272496Y1798656D1*
X1275120Y1799968D1*
X1278401Y1803249D1*
X1280370Y1807186D1*
X1281026Y1809155D1*
X1283651Y1819653D1*
X1284307Y1821622D1*
Y1822278D1*
X1286275Y1824247D1*
X1288900Y1825559D1*
X1290868Y1826215D1*
X1292837D1*
X1296774Y1824903D1*
X1300055Y1821622D1*
Y1820966D1*
X1300711Y1819653D1*
X1301367Y1818997D1*
Y1809811D1*
X1300711Y1809155D1*
X1300055Y1806530D1*
X1298086Y1802593D1*
X1296774Y1800625D1*
X1294149Y1797344D1*
X1302679D1*
X1303336Y1798000D1*
X1303992Y1799968D1*
X1304648Y1801281D1*
X1305960Y1805218D1*
X1306616Y1808499D1*
Y1819653D1*
X1305960Y1822278D1*
X1304648Y1824903D1*
X1303336Y1826871D1*
X1300055Y1830152D1*
X1296118Y1832121D1*
X1294149Y1832777D1*
X1287588D1*
G37*
G36*
X646511Y1908892D2*
Y1902987D1*
X647168Y1902331D1*
X690475Y1887895D1*
X689162Y1887239D1*
X659635Y1877396D1*
X657010Y1876740D1*
X647168Y1873459D1*
X646511Y1872803D1*
Y1866241D1*
X647824D1*
X655698Y1868866D1*
X678664Y1876740D1*
X697693Y1883302D1*
X699005Y1883958D1*
Y1891176D1*
X696380Y1892488D1*
X650448Y1908236D1*
X648480Y1908892D1*
X646511D1*
G37*
G36*
X679976Y1861648D2*
X676695Y1860992D1*
X672758Y1859023D1*
X670133Y1856399D1*
X668165Y1852462D1*
X667509Y1850493D1*
X666853Y1845900D1*
Y1842619D1*
X667509Y1841963D1*
Y1839995D1*
X662259Y1839338D1*
X657010D1*
X651761Y1839995D1*
Y1860992D1*
X646511D1*
Y1832777D1*
X673414D1*
Y1834745D1*
X672758Y1839338D1*
X672102Y1839995D1*
Y1845244D1*
X672758Y1845900D1*
X673414Y1849181D1*
X674071Y1850493D1*
Y1851149D1*
X675383Y1852462D1*
X676695Y1853118D1*
X679976Y1854430D1*
X682163Y1855086D1*
X684350D1*
X686538Y1854430D1*
X690475Y1853118D1*
X691131Y1852462D1*
X692443Y1851806D1*
X692972Y1850958D1*
X693099Y1850493D1*
X694412Y1848525D1*
X695068Y1847869D1*
Y1839995D1*
X694412Y1839338D1*
X693099Y1835401D1*
X691787Y1832777D1*
X690475Y1830808D1*
X697693D1*
X699005Y1833433D1*
X700317Y1838682D1*
Y1848525D1*
X699005Y1852462D1*
X698349Y1853774D1*
X696380Y1856399D1*
X695724Y1857055D1*
X693099Y1859023D1*
X690475Y1860336D1*
X688506Y1860992D1*
X685225Y1861648D1*
X679976D1*
G37*
G36*
X460816Y1893144D2*
X460600Y1892348D1*
X460160Y1891832D1*
X459504Y1890520D1*
X458847Y1888551D1*
X458191Y1884614D1*
Y1882646D1*
X458847Y1879365D1*
X459504Y1877396D1*
X460160Y1876084D1*
X461472Y1874115D1*
X464097Y1871491D1*
X466065Y1870178D1*
X468690Y1868866D1*
X472627Y1867554D1*
X475908Y1866898D1*
X483782D1*
X487719Y1867554D1*
X491656Y1868866D1*
X494280Y1870178D1*
X496905Y1872147D1*
X498874Y1874772D1*
X499530Y1876084D1*
X500186Y1878052D1*
Y1885270D1*
X499530Y1887239D1*
X498217Y1889863D1*
X495593Y1892488D1*
Y1893144D1*
X498874Y1893800D1*
Y1899706D1*
X443756D1*
Y1893800D1*
X460816Y1893144D1*
X466065D1*
X474158Y1893800D1*
X482251D1*
X490343Y1893144D1*
X491656Y1891832D1*
Y1891176D1*
X492968Y1889207D1*
X493624Y1887239D1*
X494280Y1886583D1*
Y1880021D1*
X493624Y1879365D1*
X492968Y1878052D1*
X492752Y1877256D1*
X492312Y1876740D1*
X491000Y1876084D1*
X490343Y1875428D1*
X486406Y1874115D1*
X481813Y1873459D1*
X477220D1*
X472627Y1874115D1*
X470658Y1874772D1*
X468034Y1876084D1*
X464753Y1879365D1*
Y1880021D1*
X464097Y1881989D1*
X463441Y1882646D1*
Y1886583D1*
X464097Y1887239D1*
X464753Y1890520D1*
X466065Y1893144D1*
X460816D1*
G37*
G36*
X470002Y1859680D2*
X466721Y1859023D1*
X464753Y1858367D1*
X462784Y1857055D1*
X460160Y1854430D1*
X458847Y1851806D1*
X458191Y1848525D1*
Y1846556D1*
X458847Y1843275D1*
X460816Y1839338D1*
X462128Y1837370D1*
X463441Y1836058D1*
X460160Y1835401D1*
X459504Y1834745D1*
Y1829496D1*
X460160Y1828840D1*
X498874D1*
Y1835401D1*
X468690Y1836058D1*
X467378Y1837370D1*
Y1838026D1*
X466065Y1839995D1*
X465409Y1841307D1*
X464753Y1843932D1*
X464097Y1844588D1*
Y1847869D1*
X464753Y1848525D1*
Y1849837D1*
X466721Y1851806D1*
X468034Y1852462D1*
X471971Y1853118D1*
X498874Y1853774D1*
Y1859680D1*
X470002D1*
G37*
G36*
X450317Y1820310D2*
X449005Y1818997D1*
X448349Y1817029D1*
X447036Y1814404D1*
X446380Y1812436D1*
X445724Y1809811D1*
X445068Y1804562D1*
Y1801281D1*
X445724Y1796688D1*
X447036Y1792751D1*
X449005Y1788814D1*
X450317Y1786845D1*
X452942Y1784220D1*
X455567Y1782252D1*
X459504Y1780283D1*
X463441Y1778971D1*
X466065Y1778315D1*
X479845D1*
X485094Y1779627D1*
X490343Y1782252D1*
X492312Y1783564D1*
X495593Y1786845D1*
X496905Y1788814D1*
X498874Y1792751D1*
X499530Y1794719D1*
X500186Y1797344D1*
Y1807842D1*
X499530Y1811123D1*
X498217Y1815060D1*
X497561Y1816373D1*
X496905Y1818341D1*
X496249Y1819653D1*
X495593Y1820310D1*
X472627D1*
Y1801937D1*
X473283Y1801281D1*
X478532D1*
Y1813092D1*
X483563Y1813748D1*
X488594D1*
X493624Y1813092D1*
Y1812436D1*
X494280Y1809811D1*
X494937Y1809155D1*
Y1798000D1*
X494280Y1797344D1*
X493624Y1795375D1*
X492312Y1793407D1*
Y1792751D1*
X489031Y1789470D1*
X487719Y1788814D1*
X487063Y1788157D1*
X484438Y1786845D1*
X482469Y1786189D1*
X479189Y1785533D1*
X474814Y1784877D1*
X470440D1*
X466065Y1785533D1*
X463441Y1786189D1*
X461472Y1786845D1*
X457535Y1788814D1*
X456223Y1790126D1*
X454910Y1790782D1*
X454132Y1791520D1*
X454254Y1792094D1*
X452286Y1794719D1*
X451630Y1796688D1*
X450973Y1799312D1*
X450317Y1799968D1*
Y1804562D1*
X450973Y1805218D1*
X451630Y1808499D1*
X452286Y1811123D1*
X454254Y1815060D1*
X456223Y1817685D1*
X457535Y1819653D1*
Y1820310D1*
X450317D1*
G37*
G36*
X1554648Y1905611D2*
X1554432Y1904815D1*
X1553992Y1904299D1*
X1553336Y1902987D1*
X1552679Y1901018D1*
X1552023Y1897081D1*
Y1895113D1*
X1552679Y1891832D1*
X1553336Y1889863D1*
X1553992Y1888551D1*
X1555304Y1886583D1*
X1557929Y1883958D1*
X1559897Y1882646D1*
X1562522Y1881333D1*
X1566459Y1880021D1*
X1569740Y1879365D1*
X1577614D1*
X1581551Y1880021D1*
X1585488Y1881333D1*
X1588112Y1882646D1*
X1590737Y1884614D1*
X1592706Y1887239D1*
X1593362Y1888551D1*
X1594018Y1890520D1*
Y1897737D1*
X1593362Y1899706D1*
X1592050Y1902331D1*
X1589425Y1904955D1*
Y1905611D1*
X1592706Y1906268D1*
Y1912173D1*
X1537588D1*
Y1906268D1*
X1554648Y1905611D1*
X1559897D1*
X1567990Y1906268D1*
X1576083D1*
X1584175Y1905611D1*
X1585488Y1904299D1*
Y1903643D1*
X1586800Y1901674D1*
X1587456Y1899706D1*
X1588112Y1899050D1*
Y1892488D1*
X1587456Y1891832D1*
X1586800Y1890520D1*
X1586584Y1889723D1*
X1586144Y1889207D1*
X1584832Y1888551D1*
X1584175Y1887895D1*
X1580238Y1886583D1*
X1575645Y1885926D1*
X1571052D1*
X1566459Y1886583D1*
X1564490Y1887239D1*
X1561866Y1888551D1*
X1558585Y1891832D1*
Y1892488D1*
X1557929Y1894457D1*
X1557273Y1895113D1*
Y1899050D1*
X1557929Y1899706D1*
X1558585Y1902987D1*
X1559897Y1905611D1*
X1554648D1*
G37*
G36*
X1563834Y1872147D2*
X1560553Y1871491D1*
X1558585Y1870835D1*
X1556616Y1869522D1*
X1553992Y1866898D1*
X1552679Y1864273D1*
X1552023Y1860992D1*
Y1859023D1*
X1552679Y1855743D1*
X1554648Y1851806D1*
X1555960Y1849837D1*
X1557273Y1848525D1*
X1553992Y1847869D1*
X1553336Y1847212D1*
Y1841963D1*
X1553992Y1841307D1*
X1592706D1*
Y1847869D1*
X1562522Y1848525D1*
X1561210Y1849837D1*
Y1850493D1*
X1559897Y1852462D1*
X1559241Y1853774D1*
X1558585Y1856399D1*
X1557929Y1857055D1*
Y1860336D1*
X1558585Y1860992D1*
Y1862304D1*
X1560553Y1864273D1*
X1561866Y1864929D1*
X1565803Y1865585D1*
X1592706Y1866241D1*
Y1872147D1*
X1563834D1*
G37*
G36*
X1544149Y1832777D2*
X1542837Y1831464D1*
X1542181Y1829496D1*
X1540868Y1826871D1*
X1540212Y1824903D1*
X1539556Y1822278D1*
X1538900Y1817029D1*
Y1813748D1*
X1539556Y1809155D1*
X1540868Y1805218D1*
X1542837Y1801281D1*
X1544149Y1799312D1*
X1546774Y1796688D1*
X1549399Y1794719D1*
X1553336Y1792751D1*
X1557273Y1791438D1*
X1559897Y1790782D1*
X1573677D1*
X1578926Y1792094D1*
X1584175Y1794719D1*
X1586144Y1796031D1*
X1589425Y1799312D1*
X1590737Y1801281D1*
X1592706Y1805218D1*
X1593362Y1807186D1*
X1594018Y1809811D1*
Y1820310D1*
X1593362Y1823590D1*
X1592050Y1827527D1*
X1591393Y1828840D1*
X1590737Y1830808D1*
X1590081Y1832121D1*
X1589425Y1832777D1*
X1566459D1*
Y1814404D1*
X1567115Y1813748D1*
X1572364D1*
Y1825559D1*
X1577395Y1826215D1*
X1582426D1*
X1587456Y1825559D1*
Y1824903D1*
X1588112Y1822278D1*
X1588769Y1821622D1*
Y1810467D1*
X1588112Y1809811D1*
X1587456Y1807842D1*
X1586144Y1805874D1*
Y1805218D1*
X1582863Y1801937D1*
X1581551Y1801281D1*
X1580895Y1800625D1*
X1578270Y1799312D1*
X1576301Y1798656D1*
X1573021Y1798000D1*
X1568646Y1797344D1*
X1564272D1*
X1559897Y1798000D1*
X1557273Y1798656D1*
X1555304Y1799312D1*
X1551367Y1801281D1*
X1550055Y1802593D1*
X1548742Y1803249D1*
X1547964Y1803987D1*
X1548086Y1804562D1*
X1546118Y1807186D1*
X1545462Y1809155D1*
X1544805Y1811779D1*
X1544149Y1812436D1*
Y1817029D1*
X1544805Y1817685D1*
X1545462Y1820966D1*
X1546118Y1823590D1*
X1548086Y1827527D1*
X1550055Y1830152D1*
X1551367Y1832121D1*
Y1832777D1*
X1544149D1*
G37*
G36*
X804648Y1748787D2*
X804432Y1747991D1*
X803992Y1747475D1*
X803336Y1746163D1*
X802679Y1744194D1*
X802023Y1740257D1*
Y1738289D1*
X802679Y1735008D1*
X803336Y1733039D1*
X803992Y1731727D1*
X805304Y1729758D1*
X807929Y1727134D1*
X809897Y1725821D1*
X812522Y1724509D1*
X816459Y1723197D1*
X819740Y1722541D1*
X827614D1*
X831551Y1723197D1*
X835488Y1724509D1*
X838112Y1725821D1*
X840737Y1727790D1*
X842706Y1730415D1*
X843362Y1731727D1*
X844018Y1733695D1*
Y1740913D1*
X843362Y1742882D1*
X842050Y1745506D1*
X839425Y1748131D1*
Y1748787D1*
X842706Y1749443D1*
Y1755349D1*
X787588D1*
Y1749443D1*
X804648Y1748787D1*
X809897D1*
X817990Y1749443D1*
X826083D1*
X834175Y1748787D1*
X835488Y1747475D1*
Y1746819D1*
X836800Y1744850D1*
X837456Y1742882D1*
X838112Y1742226D1*
Y1735664D1*
X837456Y1735008D1*
X836800Y1733695D1*
X836584Y1732899D1*
X836144Y1732383D1*
X834832Y1731727D1*
X834175Y1731071D1*
X830238Y1729758D1*
X825645Y1729102D1*
X821052D1*
X816459Y1729758D1*
X814490Y1730415D1*
X811866Y1731727D1*
X808585Y1735008D1*
Y1735664D1*
X807929Y1737632D1*
X807273Y1738289D1*
Y1742226D1*
X807929Y1742882D1*
X808585Y1746163D1*
X809897Y1748787D1*
X804648D1*
G37*
G36*
X813834Y1715323D2*
X810553Y1714667D1*
X808585Y1714010D1*
X806616Y1712698D1*
X803992Y1710073D1*
X802679Y1707449D1*
X802023Y1704168D1*
Y1702199D1*
X802679Y1698919D1*
X804648Y1694981D1*
X805960Y1693013D1*
X807273Y1691701D1*
X803992Y1691044D1*
X803336Y1690388D1*
Y1685139D1*
X803992Y1684483D1*
X842706D1*
Y1691044D1*
X812522Y1691701D1*
X811210Y1693013D1*
Y1693669D1*
X809897Y1695638D1*
X809241Y1696950D1*
X808585Y1699575D1*
X807929Y1700231D1*
Y1703512D1*
X808585Y1704168D1*
Y1705480D1*
X810553Y1707449D1*
X811866Y1708105D1*
X815803Y1708761D1*
X842706Y1709417D1*
Y1715323D1*
X813834D1*
G37*
G36*
X794149Y1675953D2*
X792837Y1674640D1*
X792181Y1672672D1*
X790868Y1670047D1*
X790212Y1668079D1*
X789556Y1665454D1*
X788900Y1660205D1*
Y1656924D1*
X789556Y1652331D1*
X790868Y1648394D1*
X792837Y1644457D1*
X794149Y1642488D1*
X796774Y1639863D1*
X799399Y1637895D1*
X803336Y1635926D1*
X807273Y1634614D1*
X809897Y1633958D1*
X823677D1*
X828926Y1635270D1*
X834175Y1637895D1*
X836144Y1639207D1*
X839425Y1642488D1*
X840737Y1644457D1*
X842706Y1648394D1*
X843362Y1650362D1*
X844018Y1652987D1*
Y1663485D1*
X843362Y1666766D1*
X842050Y1670703D1*
X841393Y1672016D1*
X840737Y1673984D1*
X840081Y1675296D1*
X839425Y1675953D1*
X816459D1*
Y1657580D1*
X817115Y1656924D1*
X822364D1*
Y1668735D1*
X827395Y1669391D1*
X832426D1*
X837456Y1668735D1*
Y1668079D1*
X838112Y1665454D1*
X838769Y1664798D1*
Y1653643D1*
X838112Y1652987D1*
X837456Y1651018D1*
X836144Y1649050D1*
Y1648394D1*
X832863Y1645113D1*
X831551Y1644457D1*
X830895Y1643800D1*
X828270Y1642488D1*
X826301Y1641832D1*
X823021Y1641176D1*
X818646Y1640520D1*
X814272D1*
X809897Y1641176D1*
X807273Y1641832D1*
X805304Y1642488D1*
X801367Y1644457D1*
X800055Y1645769D1*
X798742Y1646425D1*
X797964Y1647163D1*
X798086Y1647737D1*
X796118Y1650362D1*
X795462Y1652331D1*
X794805Y1654955D1*
X794149Y1655611D1*
Y1660205D1*
X794805Y1660861D1*
X795462Y1664142D1*
X796118Y1666766D1*
X798086Y1670703D1*
X800055Y1673328D1*
X801367Y1675296D1*
Y1675953D1*
X794149D1*
G37*
G36*
X889950Y1785533D2*
Y1779627D1*
X890606Y1778971D1*
X933913Y1764535D1*
X932601Y1763879D1*
X903073Y1754037D1*
X900448Y1753380D1*
X890606Y1750100D1*
X889950Y1749443D1*
Y1742882D1*
X891262D1*
X899136Y1745506D1*
X922102Y1753380D1*
X941131Y1759942D1*
X942443Y1760598D1*
Y1767816D1*
X939819Y1769128D1*
X893887Y1784877D1*
X891918Y1785533D1*
X889950D1*
G37*
G36*
X923414Y1737632D2*
X921446Y1736976D1*
X920133Y1736320D1*
X916196Y1732383D1*
X914884Y1729758D1*
Y1727790D1*
X914084Y1727105D1*
X913325Y1727190D1*
X912916Y1727790D1*
Y1729102D1*
X911603Y1731727D1*
X908322Y1735008D1*
X905698Y1736320D1*
X903073Y1736976D1*
X899792D1*
X897168Y1736320D1*
X894543Y1735008D1*
X891262Y1731727D1*
X889950Y1729102D1*
X889294Y1727134D1*
X888637Y1722541D1*
Y1719916D1*
X889294Y1715323D1*
X889950Y1712698D1*
X891262Y1708761D1*
X892574Y1707449D1*
X898480D1*
Y1708105D1*
X895855Y1713354D1*
X895199Y1715323D1*
X894543Y1717947D1*
X893887Y1718604D1*
Y1722541D1*
X894543Y1723197D1*
X895199Y1725821D1*
Y1726478D1*
X897824Y1729102D1*
X899792Y1729758D1*
X901323Y1730415D1*
X902854D1*
X904385Y1729758D1*
X907666Y1728446D1*
X908979Y1727790D1*
X909507Y1726943D1*
X909635Y1726478D1*
X910947Y1723853D1*
X911603Y1717291D1*
X916853D1*
X917509Y1723197D1*
X918165Y1725821D1*
X918821Y1727134D1*
Y1727790D1*
X920133Y1729102D1*
X922758Y1730415D1*
X925820Y1731071D1*
X928882D1*
X931945Y1730415D1*
X934569Y1729102D1*
X937194Y1726478D1*
Y1725821D1*
X937850Y1724509D1*
X938506Y1723853D1*
Y1715323D1*
X937850Y1714667D1*
X937194Y1712698D1*
X936538Y1711386D1*
X935882Y1709417D1*
X934569Y1707449D1*
X933913Y1706136D1*
X940475D1*
X941131Y1706793D1*
X941787Y1708105D1*
X943099Y1712042D1*
X943756Y1715323D1*
Y1725165D1*
X942443Y1729102D1*
X941131Y1731071D1*
X937194Y1735008D1*
X935225Y1736320D1*
X931288Y1737632D1*
X923414D1*
G37*
G36*
X933257Y1694981D2*
Y1687764D1*
X933913Y1687107D1*
X942443D1*
Y1694981D1*
X933257D1*
G37*
G36*
X923414Y1675296D2*
X921446Y1674640D1*
X920133Y1673984D1*
X916196Y1670047D1*
X914884Y1667422D1*
Y1665454D1*
X914084Y1664769D1*
X913325Y1664854D1*
X912916Y1665454D1*
Y1666766D1*
X911603Y1669391D1*
X908322Y1672672D1*
X905698Y1673984D1*
X903073Y1674640D1*
X899792D1*
X897168Y1673984D1*
X894543Y1672672D1*
X891262Y1669391D1*
X889950Y1666766D1*
X889294Y1664798D1*
X888637Y1660205D1*
Y1657580D1*
X889294Y1652987D1*
X889950Y1650362D1*
X891262Y1646425D1*
X892574Y1645113D1*
X898480D1*
Y1645769D1*
X895855Y1651018D1*
X895199Y1652987D1*
X894543Y1655611D1*
X893887Y1656268D1*
Y1660205D1*
X894543Y1660861D1*
X895199Y1663485D1*
Y1664142D1*
X897824Y1666766D1*
X899792Y1667422D1*
X901323Y1668079D1*
X902854D1*
X904385Y1667422D1*
X907666Y1666110D1*
X908979Y1665454D1*
X909507Y1664607D1*
X909635Y1664142D1*
X910947Y1661517D1*
X911603Y1654955D1*
X916853D1*
X917509Y1660861D1*
X918165Y1663485D1*
X918821Y1664798D1*
Y1665454D1*
X920133Y1666766D1*
X922758Y1668079D1*
X925820Y1668735D1*
X928882D1*
X931945Y1668079D1*
X934569Y1666766D1*
X937194Y1664142D1*
Y1663485D1*
X937850Y1662173D1*
X938506Y1661517D1*
Y1652987D1*
X937850Y1652331D1*
X937194Y1650362D1*
X936538Y1649050D1*
X935882Y1647081D1*
X934569Y1645113D1*
X933913Y1643800D1*
X940475D1*
X941131Y1644457D1*
X941787Y1645769D1*
X943099Y1649706D1*
X943756Y1652987D1*
Y1662829D1*
X942443Y1666766D1*
X941131Y1668735D1*
X937194Y1672672D1*
X935225Y1673984D1*
X931288Y1675296D1*
X923414D1*
G37*
G36*
X1041525Y1760598D2*
Y1737632D1*
X994937Y1736976D1*
Y1730415D1*
X1047430D1*
Y1760598D1*
X1041525D1*
G37*
G36*
X998217Y1723197D2*
X998002Y1722401D1*
X997561Y1721884D1*
X995593Y1717947D1*
X994937Y1715979D1*
X994280Y1713354D1*
X993624Y1708761D1*
Y1705480D1*
X994280Y1700887D1*
X994937Y1698919D1*
X997561Y1693669D1*
X1002811Y1688420D1*
X1006092Y1686451D1*
X1009372Y1685139D1*
X1011341Y1684483D1*
X1014622Y1683827D1*
X1028401D1*
X1031682Y1684483D1*
X1035619Y1685795D1*
X1038244Y1687107D1*
X1040212Y1688420D1*
X1045462Y1693669D1*
X1047430Y1697606D1*
X1048086Y1699575D1*
X1048742Y1702199D1*
Y1712042D1*
X1048086Y1714667D1*
X1046774Y1718604D1*
X1044805Y1722541D1*
X1044149Y1723197D1*
X1036275D1*
X1039556Y1719260D1*
X1040868Y1717291D1*
X1042181Y1714667D1*
X1042837Y1712042D1*
X1043493Y1711386D1*
Y1702856D1*
X1042837Y1702199D1*
X1041525Y1699575D1*
X1040212Y1697606D1*
X1039997Y1696810D1*
X1039556Y1696294D1*
X1038244Y1695638D1*
X1036931Y1694325D1*
X1032994Y1692357D1*
X1031026Y1691701D1*
X1028401Y1691044D1*
X1023808Y1690388D1*
X1019215D1*
X1014622Y1691044D1*
X1011997Y1691701D1*
X1008060Y1693013D1*
X1007404Y1693669D1*
X1004779Y1694981D1*
X1002154Y1697606D1*
Y1698262D1*
X1000842Y1700231D1*
X1000186Y1701543D1*
X999530Y1704168D1*
X998874Y1704824D1*
Y1709417D1*
X999530Y1710073D1*
X1000186Y1713354D1*
X1002154Y1717291D1*
X1003467Y1719260D1*
X1006092Y1722541D1*
Y1723197D1*
X998217D1*
G37*
G36*
X1029714Y1678577D2*
X1027745Y1677921D1*
X1025120Y1676609D1*
X1021840Y1673328D1*
X1019871Y1669391D1*
X1019215Y1667422D1*
X1016590Y1656924D1*
X1015278Y1654299D1*
Y1653643D1*
X1013966Y1652331D1*
X1011341Y1651018D1*
X1009154Y1650362D1*
X1006966D1*
X1004779Y1651018D1*
X1003467Y1651674D1*
X1000842Y1654299D1*
Y1654955D1*
X1000186Y1656268D1*
X999530Y1658892D1*
X998874Y1659548D1*
Y1664142D1*
X999530Y1664798D1*
X1000186Y1667422D1*
X1000842Y1669391D1*
X1002811Y1673328D1*
X1004779Y1675953D1*
Y1676609D1*
X996905D1*
X996249Y1675296D1*
X994937Y1671359D1*
X994280Y1668735D1*
X993624Y1662829D1*
Y1659548D1*
X994280Y1655611D1*
X994937Y1653643D1*
X996905Y1649706D1*
X1000186Y1646425D1*
X1002154Y1645113D1*
X1003467Y1644457D1*
X1005435Y1643800D1*
X1012653D1*
X1014622Y1644457D1*
X1017246Y1645769D1*
X1020527Y1649050D1*
X1022496Y1652987D1*
X1023152Y1654955D1*
X1025777Y1665454D1*
X1026433Y1667422D1*
Y1668079D1*
X1028401Y1670047D1*
X1031026Y1671359D1*
X1032994Y1672016D1*
X1034963D1*
X1038900Y1670703D1*
X1042181Y1667422D1*
Y1666766D1*
X1042837Y1665454D1*
X1043493Y1664798D1*
Y1655611D1*
X1042837Y1654955D1*
X1042181Y1652331D1*
X1040212Y1648394D1*
X1038900Y1646425D1*
X1036275Y1643144D1*
X1044805D1*
X1045462Y1643800D1*
X1046118Y1645769D1*
X1046774Y1647081D1*
X1048086Y1651018D1*
X1048742Y1654299D1*
Y1665454D1*
X1048086Y1668079D1*
X1046774Y1670703D1*
X1045462Y1672672D1*
X1042181Y1675953D1*
X1038244Y1677921D1*
X1036275Y1678577D1*
X1029714D1*
G37*
G36*
X1155698Y1911517D2*
X1147824Y1908892D1*
X1146511Y1908236D1*
Y1900362D1*
X1147168Y1899706D1*
X1187850Y1885926D1*
X1197693Y1882646D1*
X1199005D1*
Y1889207D1*
X1196380Y1889863D1*
X1184569Y1893800D1*
X1183913Y1894457D1*
Y1913485D1*
X1184569Y1914142D1*
X1198349Y1918735D1*
X1199005Y1919391D1*
Y1925953D1*
X1155698Y1911517D1*
X1176039D1*
X1176914Y1912173D1*
X1177789D1*
X1178664Y1911517D1*
Y1896425D1*
X1177864Y1895740D1*
X1177105Y1895825D1*
X1176695Y1896425D1*
X1174727Y1897081D1*
X1172102Y1897737D1*
X1154385Y1903643D1*
Y1904299D1*
X1176039Y1911517D1*
X1155698D1*
G37*
G36*
X1153729Y1872803D2*
X1151761Y1870835D1*
X1150448Y1868866D1*
X1148480Y1864929D1*
X1147824Y1862961D1*
X1147168Y1860336D1*
X1146511Y1853118D1*
Y1838682D1*
X1199005D1*
Y1859023D1*
X1198349Y1862304D1*
X1197693Y1864273D1*
X1195068Y1869522D1*
X1189162Y1875428D1*
X1183913Y1878052D1*
X1179976Y1879365D1*
X1176039Y1880021D1*
X1170133D1*
X1165540Y1879365D1*
X1161603Y1878052D1*
X1157666Y1876084D1*
X1155698Y1874772D1*
X1153729Y1872803D1*
X1170790D1*
X1172321Y1873459D1*
X1173852D1*
X1175383Y1872803D1*
X1180632Y1872147D1*
X1182601Y1871491D1*
X1186538Y1869522D1*
X1191131Y1864929D1*
Y1864273D1*
X1191787Y1862961D1*
X1192443Y1860992D1*
X1193099Y1858367D1*
X1193756Y1857711D1*
Y1845900D1*
X1179757Y1845244D1*
X1165759D1*
X1151761Y1845900D1*
Y1854430D1*
X1152417Y1855086D1*
X1153073Y1859680D1*
X1153729Y1861648D1*
X1155042Y1864273D1*
X1156354Y1866241D1*
Y1866898D1*
X1157666Y1868210D1*
X1158979Y1868866D1*
X1159635Y1869522D1*
X1163572Y1871491D1*
X1165540Y1872147D1*
X1170790Y1872803D1*
X1153729D1*
G37*
G36*
X1181288Y1830808D2*
X1179320Y1830152D1*
X1176695Y1828840D1*
X1173414Y1825559D1*
X1171446Y1821622D1*
X1170790Y1819653D1*
X1168165Y1809155D1*
X1166853Y1806530D1*
Y1805874D1*
X1165540Y1804562D1*
X1162916Y1803249D1*
X1160728Y1802593D1*
X1158541D1*
X1156354Y1803249D1*
X1155042Y1803905D1*
X1152417Y1806530D1*
Y1807186D1*
X1151761Y1808499D1*
X1151105Y1811123D1*
X1150448Y1811779D1*
Y1816373D1*
X1151105Y1817029D1*
X1151761Y1819653D1*
X1152417Y1821622D1*
X1154385Y1825559D1*
X1156354Y1828184D1*
Y1828840D1*
X1148480D1*
X1147824Y1827527D1*
X1146511Y1823590D1*
X1145855Y1820966D1*
X1145199Y1815060D1*
Y1811779D1*
X1145855Y1807842D1*
X1146511Y1805874D1*
X1148480Y1801937D1*
X1151761Y1798656D1*
X1153729Y1797344D1*
X1155042Y1796688D1*
X1157010Y1796031D1*
X1164228D1*
X1166196Y1796688D1*
X1168821Y1798000D1*
X1172102Y1801281D1*
X1174071Y1805218D1*
X1174727Y1807186D1*
X1177351Y1817685D1*
X1178008Y1819653D1*
Y1820310D1*
X1179976Y1822278D1*
X1182601Y1823590D1*
X1184569Y1824247D1*
X1186538D1*
X1190475Y1822934D1*
X1193756Y1819653D1*
Y1818997D1*
X1194412Y1817685D1*
X1195068Y1817029D1*
Y1807842D1*
X1194412Y1807186D1*
X1193756Y1804562D1*
X1191787Y1800625D1*
X1190475Y1798656D1*
X1187850Y1795375D1*
X1196380D1*
X1197036Y1796031D1*
X1197693Y1798000D1*
X1198349Y1799312D1*
X1199661Y1803249D1*
X1200317Y1806530D1*
Y1817685D1*
X1199661Y1820310D1*
X1198349Y1822934D1*
X1197036Y1824903D1*
X1193756Y1828184D1*
X1189819Y1830152D1*
X1187850Y1830808D1*
X1181288D1*
G37*
X1196547Y956991D2*
D41*
X1195121Y959843D1*
X1192236Y962728D1*
X1189384Y964154D1*
X1183647D1*
X1180762Y962728D1*
X1177910Y959843D1*
X1176451Y956991D1*
X1175025Y952680D1*
Y945484D1*
X1176451Y941206D1*
X1177910Y938321D1*
X1180762Y935469D1*
X1183647Y934010D1*
X1189384D1*
X1192236Y935469D1*
X1195121Y938321D1*
X1196547Y941206D1*
X1205810Y958384D2*
X1208696Y959843D1*
X1213007Y964121D1*
Y934010D1*
X1190097Y1156722D2*
X1188671Y1159574D1*
X1185786Y1162459D1*
X1182934Y1163885D1*
X1177197D1*
X1174312Y1162459D1*
X1171460Y1159574D1*
X1170001Y1156722D1*
X1168575Y1152411D1*
Y1145215D1*
X1170001Y1140937D1*
X1171460Y1138052D1*
X1174312Y1135200D1*
X1177197Y1133741D1*
X1182934D1*
X1185786Y1135200D1*
X1188671Y1138052D1*
X1190097Y1140937D1*
X1200820Y1156689D2*
Y1158115D1*
X1202246Y1161000D1*
X1203672Y1162426D1*
X1206557Y1163852D1*
X1212294D1*
X1215145Y1162426D1*
X1216571Y1161000D1*
X1218031Y1158115D1*
Y1155263D1*
X1216571Y1152378D1*
X1213720Y1148100D1*
X1199360Y1133741D1*
X1219457D1*
X1217677Y610894D2*
Y587947D1*
X1216251Y583636D1*
X1214792Y582210D1*
X1211940Y580750D1*
X1209055D1*
X1206203Y582210D1*
X1204777Y583636D1*
X1203318Y587947D1*
Y590798D1*
X1226940Y605124D2*
X1229825Y606583D1*
X1234136Y610861D1*
Y580750D1*
X1204777Y1585318D2*
Y1562370D1*
X1203351Y1558059D1*
X1201892Y1556633D1*
X1199040Y1555174D1*
X1196155D1*
X1193303Y1556633D1*
X1191877Y1558059D1*
X1190418Y1562370D1*
Y1565222D1*
X1215499Y1578122D2*
Y1579548D1*
X1216925Y1582433D1*
X1218351Y1583859D1*
X1221236Y1585285D1*
X1226973D1*
X1229825Y1583859D1*
X1231251Y1582433D1*
X1232710Y1579548D1*
Y1576696D1*
X1231251Y1573811D1*
X1228399Y1569533D1*
X1214040Y1555174D1*
X1234136D1*
X996396Y2061349D2*
Y2091493D1*
X984922Y2061349D1*
X973448Y2091493D1*
Y2061349D1*
X1014281Y2091493D2*
X1011396Y2090067D1*
X1008544Y2087182D1*
X1007085Y2084330D1*
X1005659Y2080019D1*
Y2072823D1*
X1007085Y2068545D1*
X1008544Y2065660D1*
X1011396Y2062808D1*
X1014281Y2061349D1*
X1020018D1*
X1022870Y2062808D1*
X1025755Y2065660D1*
X1027181Y2068545D1*
X1028607Y2072823D1*
Y2080019D1*
X1027181Y2084330D1*
X1025755Y2087182D1*
X1022870Y2090067D1*
X1020018Y2091493D1*
X1014281D1*
X1037871D2*
Y2061349D1*
X1047919D1*
X1052230Y2062808D1*
X1055115Y2065660D1*
X1056541Y2068545D1*
X1057967Y2072823D1*
Y2080019D1*
X1056541Y2084330D1*
X1055115Y2087182D1*
X1052230Y2090067D1*
X1047919Y2091493D1*
X1037871D1*
X1067230Y2085723D2*
X1070115Y2087182D1*
X1074426Y2091460D1*
Y2061349D1*
X893798Y1193419D2*
Y1171897D1*
X895224Y1167586D1*
X898109Y1164735D1*
X902420Y1163275D1*
X905272D1*
X909583Y1164735D1*
X912468Y1167586D1*
X913894Y1171897D1*
Y1193419D1*
X923158Y1187649D2*
X926043Y1189108D1*
X930354Y1193386D1*
Y1163275D1*
M02*
